<?xml version="1.0" encoding="utf-8"?>
<!-- Generator: Adobe Illustrator 24.0.1, SVG Export Plug-In . SVG Version: 6.00 Build 0)  -->
<svg version="1.1" id="Layer_1" xmlns="http://www.w3.org/2000/svg" xmlns:xlink="http://www.w3.org/1999/xlink" x="0px" y="0px"
	 viewBox="0 0 178 45" style="enable-background:new 0 0 178 45;" xml:space="preserve">
<style type="text/css">
	.st0{fill:#488FCD;}
	.st1{fill:#E8493D;}
	.st2{fill:#030303;}
</style>
<g>
	<path class="st0" d="M102.33,33.57c-0.19,0.1-0.15,0.32-0.19,0.47c-0.16,0.61-0.52,1.07-0.95,1.51c-0.67,0.67-1.51,0.86-2.4,0.86
		c-4.55,0.01-9.11,0.01-13.66,0.01c-0.35,0-0.37-0.03-0.21-0.33c0.44-0.82,0.88-1.65,1.32-2.47c0.09-0.17,0.27-0.17,0.43-0.17
		c0.85,0,1.69,0,2.54,0c3.24,0,6.48,0,9.72,0c0.38,0,0.48-0.09,0.48-0.48c0-5.83,0-11.66,0-17.49c0-0.26-0.05-0.37-0.35-0.37
		c-2.13,0.01-4.27-0.01-6.4,0.01c-1.74,0.02-3.11-1.3-3.26-2.8c-0.02-0.2-0.04-0.4-0.04-0.61c0-2.1,0-4.21,0.01-6.31
		c0-0.25-0.06-0.3-0.31-0.3c-2.81,0.01-5.62,0.01-8.44,0.01c-0.41,0-0.47,0.07-0.47,0.49c0,7.59,0,15.18,0,22.77
		c0,0.36,0,0.37-0.33,0.23c-0.8-0.34-1.6-0.69-2.4-1.03c-0.16-0.07-0.2-0.17-0.19-0.32c0.01-0.4,0.01-0.8,0.01-1.2
		c0-6.72,0-13.43-0.01-20.15c0-0.63-0.02-1.25,0.28-1.84c0.35-0.69,0.86-1.21,1.58-1.54c0.19-0.09,0.37-0.19,0.59-0.22
		c0.02,0,0.1-0.04,0.02-0.09c0.09,0,0.19,0,0.28,0c0.02,0.06,0.04-0.01,0.06,0c3.15,0,6.3,0,9.44,0c0.06,0.24,0.23,0.4,0.41,0.53
		c0.46,0.36,0.8,0.84,1.24,1.22c0.23,0.2,0.41,0.48,0.65,0.66c0.43,0.33,0.74,0.77,1.14,1.13c0.61,0.55,1.17,1.14,1.75,1.72
		c0.62,0.62,1.23,1.25,1.85,1.86c0.44,0.44,0.87,0.89,1.31,1.32c0.36,0.35,0.72,0.7,1.08,1.06c0.53,0.54,1.07,1.08,1.6,1.62
		c0.51,0.52,1.03,1.03,1.56,1.53c0.08,0.08,0.13,0.21,0.27,0.19C102.33,21.23,102.33,27.4,102.33,33.57z"/>
	<path class="st1" d="M75.67,39.55c0.13,0.04,0.09-0.06,0.11-0.12c0.24-1.02,0.91-1.6,1.89-1.91c0.39-0.12,0.77-0.1,1.15-0.08
		c0.32,0.02,0.6,0.21,0.84,0.42c0.22,0.19,0.21,0.42,0.02,0.6c-0.18,0.17-0.37,0.16-0.57,0.01c-0.13-0.09-0.2-0.24-0.35-0.31
		c-1.13-0.49-2.19,0.38-2.19,1.44c0,0.54,0.32,0.97,0.94,0.96c0.5-0.01,0.92-0.13,1.23-0.54c0.15-0.19,0.36-0.18,0.53-0.12
		c0.17,0.06,0.13,0.26,0.05,0.38c-0.18,0.29-0.47,0.49-0.78,0.59c-0.18,0.06-0.33,0.18-0.51,0.23c-0.5,0.14-1.67,0.05-2.05-0.53
		c-0.08-0.12-0.14-0.26-0.2-0.39c-0.01-0.02-0.05-0.09-0.1-0.03c0-0.04,0-0.07,0-0.11c0.09-0.11,0.09-0.22,0-0.34
		C75.67,39.66,75.67,39.6,75.67,39.55z"/>
	<path class="st1" d="M83.83,42.79c0-0.05-0.04-0.06-0.08-0.05c-0.3,0.01-0.38-0.15-0.38-0.42c0-0.85,0.06-1.7-0.03-2.54
		c-0.06-0.57,0.17-0.79,0.62-0.98c0.5-0.2,1.01-0.31,1.52-0.13c0.73,0.26,0.72,0.9,0.37,1.52c-0.24,0.42-0.64,0.63-1.04,0.83
		c-0.11,0.06-0.27,0.02-0.41,0.03c-0.35,0.01-0.4,0.05-0.33,0.39c0.03,0.17,0.03,0.33,0.04,0.5c0.02,0.3-0.03,0.58-0.17,0.84
		C83.91,42.79,83.87,42.79,83.83,42.79z M84.13,39.98c0,0.09,0.01,0.21,0,0.32c-0.01,0.21,0.08,0.27,0.28,0.26
		c0.49-0.03,0.8-0.4,0.86-0.82c0.06-0.41-0.01-0.5-0.42-0.59c-0.19-0.05-0.37,0.02-0.55,0.06c-0.16,0.04-0.22,0.18-0.19,0.32
		C84.15,39.68,84.11,39.82,84.13,39.98z"/>
	<path class="st2" d="M75.67,39.71c0.09,0.11,0.09,0.22,0,0.34C75.67,39.94,75.67,39.83,75.67,39.71z"/>
	<path class="st2" d="M80.03,2.21c-0.02-0.01-0.04,0.06-0.06,0C79.99,2.21,80.01,2.21,80.03,2.21z"/>
	<path class="st0" d="M92.05,20.01c-0.33,0.62-0.65,1.23-0.98,1.83c-0.34,0.63-0.68,1.27-1.04,1.89c-0.59,1.03-1.13,2.09-1.72,3.12
		c-0.66,1.16-1.26,2.35-1.9,3.51c-0.91,1.67-1.83,3.33-2.74,5c-0.34,0.62-0.67,1.24-1.01,1.87c-0.17,0.31-0.21,0.32-0.41,0.04
		c-0.8-1.13-1.59-2.26-2.38-3.38c-0.81-1.14-1.61-2.28-2.42-3.43c-0.38-0.54-0.76-1.08-1.14-1.63c-0.05-0.07-0.08-0.15-0.15-0.26
		c0.61,0.27,1.17,0.51,1.74,0.75c0.68,0.29,1.38,0.54,2.05,0.86c0.62,0.3,1.28,0.49,1.87,0.84c0.13,0.08,0.19-0.02,0.25-0.09
		c0.45-0.49,0.89-0.98,1.33-1.48c0.62-0.69,1.23-1.37,1.84-2.06c0.52-0.58,1.02-1.19,1.56-1.75c0.53-0.55,1.03-1.12,1.54-1.68
		c0.7-0.79,1.43-1.57,2.12-2.37c0.44-0.51,0.89-1,1.34-1.5C91.86,20.03,91.91,19.96,92.05,20.01z"/>
	<path class="st1" d="M92.66,39.35c0.04,0.56-0.24,0.93-0.64,1.27c-0.39,0.33-0.83,0.49-1.33,0.49c-0.32,0-0.59-0.11-0.81-0.34
		c-0.05-0.05-0.09-0.19-0.19-0.03c-0.21,0.31-0.74,0.47-1.13,0.35c-0.52-0.16-0.72-0.46-0.64-1c0.02-0.14,0.03-0.28,0.04-0.41
		c0.01-0.23,0.01-0.43-0.28-0.47c-0.1-0.02-0.15-0.13-0.14-0.22c0.02-0.12,0.04-0.3,0.19-0.31c0.21-0.02,0.23-0.12,0.23-0.29
		c0-0.37,0.04-0.39,0.43-0.4c0.31-0.01,0.32,0.2,0.3,0.41c-0.02,0.21,0.06,0.29,0.26,0.26c0.08-0.01,0.17,0.01,0.25,0
		c0.18-0.02,0.3,0.09,0.31,0.24c0.01,0.15-0.07,0.3-0.23,0.36c-0.01,0-0.02,0.01-0.03,0.01c-0.18,0.04-0.49-0.09-0.54,0.08
		c-0.08,0.28-0.04,0.61-0.01,0.91c0.03,0.3,0.22,0.39,0.51,0.27c0.05-0.02,0.11-0.08,0.15-0.07c0.41,0.14,0.37-0.15,0.43-0.41
		c0.15-0.69,1.03-1.5,1.82-1.39c0.24,0.03,0.5-0.08,0.73,0.08C92.57,38.88,92.72,39.07,92.66,39.35z M91.42,39.21
		c-0.41,0-0.88,0.49-0.86,0.9c0.01,0.26,0.2,0.45,0.45,0.45c0.43-0.01,0.85-0.44,0.86-0.88C91.88,39.32,91.77,39.21,91.42,39.21z"/>
	<path class="st1" d="M82.83,39.99c0,0.26,0,0.52,0,0.78c0,0.15-0.06,0.26-0.23,0.3c-0.17,0.04-0.35,0.04-0.42-0.11
		c-0.12-0.25-0.24-0.14-0.39-0.07c-0.4,0.19-0.81,0.29-1.26,0.17c-0.46-0.13-0.71-0.49-0.6-0.96c0.16-0.69,0.62-1.11,1.28-1.35
		c0.36-0.13,0.71-0.08,1.06-0.09c0.33-0.01,0.58,0.31,0.56,0.64c-0.01,0.12-0.01,0.24-0.01,0.36
		C82.83,39.77,82.83,39.88,82.83,39.99z M82.11,39.52c0.06-0.23-0.16-0.3-0.39-0.34c-0.48-0.07-1.04,0.41-1.01,0.9
		c0.01,0.12,0.03,0.3,0.18,0.35C81.5,40.63,82.02,40.2,82.11,39.52z"/>
	<path class="st1" d="M99.92,41.12c-0.12-0.01-0.24,0-0.34-0.02c-0.66-0.13-0.9-0.72-0.59-1.41c0.27-0.59,1.2-1.16,1.85-1.13
		c0.19,0.01,0.38,0.07,0.56,0.12c0.41,0.11,0.49,0.66,0.23,1c-0.19,0.24-0.4,0.27-0.67,0.33c-0.37,0.08-0.72,0.2-1.1,0.23
		c-0.06,0-0.16,0.04-0.14,0.14c0.02,0.09,0.09,0.15,0.18,0.15c0.21,0,0.41,0.03,0.62,0.06c0.12,0.02,0.27,0.07,0.26-0.19
		c-0.01-0.11,0.25-0.16,0.4-0.18c0.11-0.02,0.15,0.09,0.17,0.18c0.03,0.14-0.03,0.22-0.15,0.3C100.8,40.98,100.37,41.11,99.92,41.12
		z M100.97,39.4c0.02-0.21-0.09-0.25-0.21-0.29c-0.25-0.07-0.77,0.14-0.91,0.36c-0.08,0.13-0.03,0.17,0.11,0.18
		c0.23,0.02,0.45-0.05,0.68-0.02C100.79,39.66,100.91,39.5,100.97,39.4z"/>
	<path class="st1" d="M95.67,39.88c0-0.26,0-0.52,0-0.78c0-0.16-0.01-0.33,0.18-0.42c0.18-0.08,0.35,0.01,0.46,0.1
		c0.13,0.1,0.16,0.08,0.3,0.01c0.17-0.08,0.36-0.17,0.58-0.15c0.33,0.03,0.66-0.08,0.99,0.09c0.13,0.07,0.25,0.13,0.29,0.26
		c0.07,0.23,0.15,0.48,0.06,0.71c-0.17,0.44-0.36,0.87-0.72,1.21c-0.05,0.05-0.1,0.08-0.16,0.1c-0.13,0.05-0.29,0.1-0.38-0.03
		c-0.09-0.13-0.06-0.29,0.06-0.41c0.24-0.23,0.36-0.53,0.44-0.84c0.05-0.19,0.03-0.35-0.12-0.48c-0.15-0.13-0.32-0.14-0.5-0.08
		c-0.43,0.16-0.74,0.5-0.75,1.02c0,0.2,0.01,0.39-0.01,0.59c-0.02,0.21-0.13,0.34-0.36,0.33c-0.22-0.01-0.37-0.08-0.36-0.34
		C95.68,40.47,95.67,40.18,95.67,39.88C95.67,39.88,95.67,39.88,95.67,39.88z"/>
	<path class="st1" d="M93.1,39.06c0-0.55,0-1.1,0-1.65c0-0.31,0.12-0.44,0.37-0.44c0.25,0,0.37,0.13,0.37,0.43
		c0.01,0.97,0.01,1.94,0,2.9c0,0.16,0.05,0.31,0.01,0.47c-0.05,0.26-0.2,0.35-0.45,0.33c-0.26-0.02-0.31-0.19-0.31-0.4
		C93.1,40.16,93.1,39.61,93.1,39.06z"/>
	<path class="st0" d="M77.27,32.66c0.83,1.18,1.65,2.35,2.48,3.54c-0.4,0.09-1.17-0.31-1.62-0.81
		C77.42,34.59,77.03,33.4,77.27,32.66z"/>
	<path class="st1" d="M87.24,39.83c0,0.29,0,0.58,0,0.86c0,0.21-0.18,0.41-0.37,0.41c-0.22,0-0.4-0.17-0.41-0.41
		c0-0.56,0-1.11,0.01-1.67c0-0.15,0.01-0.34,0.18-0.36c0.16-0.02,0.35-0.1,0.51,0.08c0.08,0.09,0.07,0.16,0.07,0.25
		C87.24,39.28,87.24,39.56,87.24,39.83z"/>
	<path class="st1" d="M95.13,39.86c0,0.29,0,0.58,0,0.87c0,0.24-0.12,0.36-0.36,0.36c-0.26,0.01-0.38-0.09-0.38-0.36
		c-0.01-0.6,0-1.21,0-1.81c0-0.19,0.1-0.27,0.28-0.25c0.19,0.01,0.44-0.07,0.45,0.26C95.13,39.22,95.13,39.54,95.13,39.86
		C95.13,39.86,95.13,39.86,95.13,39.86z"/>
	<path class="st1" d="M86.84,37.42c0.29,0,0.48,0.17,0.45,0.44c-0.03,0.33-0.17,0.46-0.44,0.45c-0.28-0.01-0.4-0.13-0.41-0.44
		C86.45,37.56,86.56,37.43,86.84,37.42z"/>
	<path class="st1" d="M95.12,37.88c0.01,0.35-0.06,0.44-0.35,0.44c-0.3,0-0.43-0.12-0.44-0.41c-0.01-0.31,0.14-0.48,0.43-0.49
		C95.04,37.42,95.11,37.51,95.12,37.88z"/>
</g>
</svg>
